<svg width="18" height="24" fill="none" xmlns="http://www.w3.org/2000/svg"><g filter="url(#filter0_d)"><path d="M12.5 0h-7C4.673 0 4 .673 4 1.5v13c0 .827.673 1.5 1.5 1.5h7c.827 0 1.5-.673 1.5-1.5v-13c0-.827-.673-1.5-1.5-1.5zm-7 1h7a.5.5 0 01.5.5V12H5V1.5a.5.5 0 01.5-.5zm7 14h-7a.5.5 0 01-.5-.5V13h8v1.5a.5.5 0 01-.5.5z" fill="#757575"/></g><path d="M6.354 13.739a.445.445 0 010 .66.525.525 0 01-.708 0 .445.445 0 010-.66.525.525 0 01.708 0z" fill="#757575"/><defs><filter id="filter0_d" x="0" y="0" width="18" height="24" filterUnits="userSpaceOnUse" color-interpolation-filters="sRGB"><feFlood flood-opacity="0" result="BackgroundImageFix"/><feColorMatrix in="SourceAlpha" values="0 0 0 0 0 0 0 0 0 0 0 0 0 0 0 0 0 0 127 0" result="hardAlpha"/><feOffset dy="4"/><feGaussianBlur stdDeviation="2"/><feComposite in2="hardAlpha" operator="out"/><feColorMatrix values="0 0 0 0 0 0 0 0 0 0 0 0 0 0 0 0 0 0 0.25 0"/><feBlend in2="BackgroundImageFix" result="effect1_dropShadow"/><feBlend in="SourceGraphic" in2="effect1_dropShadow" result="shape"/></filter></defs></svg>