<svg aria-hidden="true" style="position:absolute;width:0;height:0" xmlns="http://www.w3.org/2000/svg" overflow="hidden"><defs><symbol id="icon-antenna" viewBox="0 0 32 32"><path fill="var(--color1, #212121)" d="M30.773 22.098l-8.443-8.505.937-4.615c.242.094.499.144.758.146h.006a2.159 2.159 0 10-2.008-1.435l-4.96.605L8.972.161a.534.534 0 00-.377-.16.532.532 0 00-.373.155L6.709 1.66a.534.534 0 000 .754l.814.826a14.943 14.943 0 002.519 17.663.513.513 0 00.146.098c-.034.18-.051.364-.052.547v6.187h-6.4a2.67 2.67 0 00-2.667 2.667v1.067c0 .295.239.533.533.533h24.533a.533.533 0 00.533-.533v-1.067a2.67 2.67 0 00-2.667-2.667h-6.4v-2.742a15.09 15.09 0 003.049.32 14.854 14.854 0 007.04-1.783l.818.823a.534.534 0 00.377.16.532.532 0 00.373-.155l1.513-1.504a.534.534 0 000-.754zM23.28 6.233a1.066 1.066 0 11.752 1.822h-.003a1.067 1.067 0 01-.747-1.823h-.002zm-1.256 3.505l-.598 2.946-1.175-1.182 1.774-1.763zm-.605-.902l-1.92 1.909-1.485-1.493 3.405-.415zM24.004 28.8a1.6 1.6 0 011.6 1.6v.533H2.137V30.4a1.6 1.6 0 011.6-1.6h20.267zm-7.467-2.133v1.067h-5.333v-1.067h5.333zM11.204 25.6v-4.053c0-1.294 1.196-2.347 2.667-2.347s2.667 1.053 2.667 2.347V25.6h-5.333zm6.4-1.696v-2.357c0-1.882-1.675-3.413-3.733-3.413a3.8 3.8 0 00-3.281 1.786A13.87 13.87 0 018.311 4.033l18.602 18.708a13.818 13.818 0 01-9.309 1.163zm11.289-.684L7.836 2.039l.755-.752 7.935 7.98c.004 0 .006.007.01.01l13.115 13.191-.757.752z"/><path fill="var(--color2, #2196f3)" d="M13.876 20.267h-.005a1.6 1.6 0 10-.004 3.2h.005a1.6 1.6 0 10.004-3.2zm.373 1.978a.534.534 0 01-.752-.756.534.534 0 01.373-.155.532.532 0 01.373.911h.005z"/></symbol><symbol id="icon-astronaut" viewBox="0 0 32 32"><path fill="var(--color2, #2196f3)" d="M31.974 4.524a.534.534 0 00-.43-.363l-1.91-.278-.855-1.731c-.179-.365-.777-.365-.956 0l-.855 1.731-1.91.278a.535.535 0 00-.296.91l1.383 1.348-.326 1.903c-.034.2.048.402.212.522a.53.53 0 00.562.04l1.709-.899 1.709.899a.536.536 0 00.775-.563l-.326-1.903 1.383-1.348a.536.536 0 00.135-.547zm-2.463 1.327a.534.534 0 00-.153.472l.191 1.114-1-.526a.533.533 0 00-.498 0l-1.001.526.191-1.114a.534.534 0 00-.153-.472l-.81-.789 1.119-.163a.532.532 0 00.402-.292l.5-1.013.5 1.013a.535.535 0 00.402.292l1.119.163-.809.789zM26.134 20.522h-1.067v1.067h1.067v-1.067zM26.134 22.656h-1.067v1.067h1.067v-1.067zM27.2 21.589h-1.067v1.067H27.2v-1.067zM25.067 21.589H24v1.067h1.067v-1.067zM22.4 26.389h-1.067v1.067H22.4v-1.067zM22.4 28.522h-1.067v1.067H22.4v-1.067zM23.467 27.456H22.4v1.067h1.067v-1.067zM21.333 27.456h-1.067v1.067h1.067v-1.067zM16 24.256h-1.067v1.067H16v-1.067zM16 26.389h-1.067v1.067H16v-1.067zM17.067 25.322H16v1.067h1.067v-1.067zM14.933 25.322h-1.067v1.067h1.067v-1.067zM5.867 6.122H4.8v1.067h1.067V6.122zM5.867 8.255H4.8v1.067h1.067V8.255z"/><path fill="var(--color2, #2196f3)" d="M6.933 7.189H5.866v1.067h1.067V7.189zM4.8 7.189H3.733v1.067H4.8V7.189z"/><path fill="var(--color1, #212121)" d="M24.715 14.159a1.775 1.775 0 00-1.188-.705 1.778 1.778 0 00-1.34.352l-1.252.96-1.898 1.417-1.358-.541c2.421-1.086 4.114-3.508 4.114-6.32 0-3.823-3.123-6.933-6.961-6.933s-6.961 3.11-6.961 6.933a6.86 6.86 0 001.12 3.758l-2.764-.024h-.005c-.009 0-.015.004-.023.005a.515.515 0 00-.155.031l-.038.013c-.006.003-.013.003-.019.006l-3.233 1.596-.001.001-1.893.911a.397.397 0 00-.063.035 1.779 1.779 0 00-.598 2.295c.22.429.595.745 1.056.889a1.776 1.776 0 001.378-.128l1.388-.738 2.264-1.169 1.357-.008L2.2 22.211l-.002.001-1.339 1.333c-.316.315-.49.732-.49 1.178s.174.863.49 1.179c.325.323.752.485 1.179.485s.854-.162 1.18-.485l1.314-1.309 1.741-1.3.901.897-1.762 1.754-.002.001-1.339 1.333c-.316.315-.49.732-.49 1.178s.174.863.49 1.179c.325.323.753.485 1.18.485s.855-.162 1.18-.485l3.482-3.467.001-.002 1.01-1-.004-.004c.006-.006.015-.009.022-.015l5.166-5.658 3.471.494a.52.52 0 00.262-.033c.018-.006.033-.015.05-.023.019-.01.039-.015.058-.027l3.213-2.133c.012-.008.018-.021.029-.029.013-.01.029-.014.041-.026l1.271-1.191c.662-.62.753-1.635.212-2.362zM2.13 17.77a.714.714 0 01-.558.052.717.717 0 01-.213-1.26l1.314-.632.449 1.312-.992.528zm3.498-1.828l-1.548.8-.439-1.283 2.027-1.001-.04 1.484zm15.099-6.62a5.79 5.79 0 01-.599 2.559l-4.181-1.899a1.863 1.863 0 00-.788-1.388l1.464-4.86c2.378.756 4.105 2.974 4.105 5.588zm-11.789 0c0-3.235 2.644-5.867 5.894-5.867.253 0 .5.021.745.052l-1.432 4.754c-.019-.001-.037-.006-.057-.006-1.033 0-1.873.837-1.873 1.867s.84 1.867 1.873 1.867c.694 0 1.294-.383 1.618-.945l3.862 1.755a5.894 5.894 0 01-4.737 2.39c-3.25 0-5.894-2.632-5.894-5.867zm5.956.8c0 .441-.362.8-.806.8s-.806-.359-.806-.8c0-.441.362-.8.806-.8s.806.359.806.8zM2.465 25.146a.608.608 0 01-.854.001.592.592 0 010-.844l.962-.958.851.848-.959.955zm3.214 3.734a.608.608 0 01-.855.001.592.592 0 010-.844l.963-.959.852.848-.96.955zm3.481-3.469l-.002.001-1.765 1.76-.852-.848 1.763-1.755.002-.001c.04-.04.065-.088.09-.135.007-.014.02-.026.026-.04.017-.041.019-.085.026-.129.003-.025.014-.047.014-.073 0-.036-.013-.07-.02-.106-.006-.032-.006-.065-.019-.095a.55.55 0 00-.091-.138c-.01-.012-.014-.027-.025-.038h-.001l-.001-.002-1.607-1.6c-.017-.017-.039-.024-.058-.038a.507.507 0 00-.087-.058.515.515 0 00-.093-.033.507.507 0 00-.103-.02.5.5 0 00-.095.005.53.53 0 00-.104.02.477.477 0 00-.094.045c-.02.011-.042.015-.061.029L4.23 23.486l-.901-.897 2.399-2.386 4.361 4.289-.928.919zm6.819-7.017c-.015-.002-.03.004-.045.003a.556.556 0 00-.3.075.492.492 0 00-.083.061c-.013.011-.028.017-.04.029l-4.698 5.146-4.328-4.257 2.833-2.818a.534.534 0 00-.379-.911v-.001l-2.219.013.028-1.607 3.104.027a6.947 6.947 0 004.981 2.101c.437 0 .864-.045 1.279-.123.04.032.079.065.13.085l2.41.96.331 1.644-3.003-.427zm4.041.178l-.313-1.558 1.446-1.08.947 1.257-2.08 1.381zm3.754-2.831l-.838.785-.931-1.236.831-.637a.735.735 0 01.543-.143.718.718 0 01.48.284.713.713 0 01-.085.947z"/><path fill="var(--color1, #212121)" d="M13.602 18.544l-2.143-2.133a.534.534 0 00-.753 0l-2.142 2.133a.537.537 0 000 .756l2.142 2.133a.536.536 0 00.753 0l2.143-2.133a.535.535 0 000-.756zm-2.519 1.759l-1.387-1.381 1.387-1.381 1.387 1.381-1.387 1.381zM17.164 5.071l-.258 1.036c.071.018 1.738.452 1.738 2.149h1.067c0-2.017-1.666-2.965-2.547-3.185zM19.711 9.322h-1.067v1.067h1.067V9.322z"/></symbol><symbol id="icon-clock" viewBox="0 0 31 32"><path fill="var(--color1, #212121)" d="M29.317 13.732C29.315 6.147 23.165-.001 15.579 0S1.846 6.152 1.847 13.738a13.734 13.734 0 009.557 13.081.603.603 0 00.475-.058.573.573 0 00.254-.32l3.469-10.994a1.717 1.717 0 00-.018-3.434c-.255.001-.507.06-.736.172l-4.582-4.583a.572.572 0 00-.809.809l4.58 4.585a1.684 1.684 0 00.481 2.072l-3.305 10.476c-6.531-2.406-9.876-9.651-7.47-16.182s9.651-9.876 16.182-7.47 9.876 9.651 7.47 16.182a12.603 12.603 0 01-6.697 7.156l-.357-1.682a.571.571 0 00-.94-.308l-3.443 3.074a.573.573 0 00.207.973l4.396 1.403a.572.572 0 00.735-.664l-.351-1.65a13.69 13.69 0 008.372-12.644zm-13.734-.572a.572.572 0 110 1.144.572.572 0 010-1.144zm1.885 13.339l1.96-1.748.541 2.549-2.501-.801z"/><path fill="var(--color2, #2196f3)" d="M15.01 2.858v1.145a.572.572 0 101.144 0V2.858a.572.572 0 10-1.144 0zM4.709 13.16a.572.572 0 100 1.144h1.145a.572.572 0 100-1.144H4.709zM26.456 14.304a.572.572 0 100-1.144h-1.145a.572.572 0 100 1.144h1.145z"/></symbol><symbol id="icon-diagram" viewBox="0 0 36 32"><path fill="var(--color2, #2196f3)" d="M16.754 14.965h1.066v4.798h-1.066v-4.797zM21.018 17.097h1.066v2.665h-1.066v-2.665zM12.49 18.696h1.066v1.066H12.49v-1.066zM9.291 18.163h1.066v1.599H9.291v-1.599z"/><path fill="var(--color1, #212121)" d="M3.428 28.291h25.587a1.6 1.6 0 001.599-1.599V24.56a1.6 1.6 0 00-1.599-1.599h-.533V9.668L31.51 6.8a1.608 1.608 0 10-.747-.763L28.482 8.2V6.97a1.6 1.6 0 00-1.599-1.599H5.561A1.6 1.6 0 003.962 6.97v15.992h-.533a1.6 1.6 0 00-1.599 1.599v2.132a1.6 1.6 0 001.599 1.599zM32.213 4.837a.533.533 0 110 1.067.533.533 0 010-1.067zM5.027 6.969c0-.294.239-.533.533-.533h21.322c.294 0 .533.239.533.533v2.239l-1.066 1.013V8.035a.533.533 0 00-.533-.533H6.626a.533.533 0 00-.533.533v13.326c0 .294.239.533.533.533h19.19a.533.533 0 00.533-.533v-9.674l1.066-1.01v12.284H5.027V6.969zm4.797 6.93a1.598 1.598 0 101.107 2.749l1.853.93a.532.532 0 00.636-.123l3.939-4.431 3.872 2.901a.533.533 0 00.686-.039l3.365-3.188v8.131H7.158V8.569h18.124v2.66l-3.771 3.572-3.904-2.927a.533.533 0 00-.718.072l-3.993 4.493-1.493-.746c.011-.064.018-.129.02-.193a1.6 1.6 0 00-1.599-1.599zm.533 1.599a.533.533 0 11-1.067 0 .533.533 0 011.067 0zm3.199 8.529h5.331v.533a.533.533 0 01-.533.533H14.09a.533.533 0 01-.533-.533v-.533zm-10.661.533c0-.294.239-.533.533-.533h9.062v.533a1.6 1.6 0 001.599 1.599h4.264a1.6 1.6 0 001.599-1.599v-.533h9.062c.294 0 .533.239.533.533v2.132a.533.533 0 01-.533.533H3.427a.533.533 0 01-.533-.533V24.56z"/></symbol><symbol id="icon-envelope-hover" viewBox="0 0 43 32"><path d="M38.667 0H4C1.795 0 0 1.795 0 4v24c0 2.205 1.795 4 4 4h34.667c2.205 0 4-1.795 4-4V4c0-2.205-1.795-4-4-4zm0 2.667c.181 0 .355.037.512.104L21.334 18.238 3.489 2.771c.151-.065.327-.104.512-.104h34.667zm0 26.666H4A1.333 1.333 0 012.667 28V5.587l17.792 15.421c.233.203.539.327.875.327s.642-.124.876-.328l-.002.001L40 5.587V28c0 .736-.597 1.333-1.333 1.333z"/></symbol><symbol id="icon-facebook-1" viewBox="0 0 32 32"><path d="M21.328 5.312h2.923V.224A36.483 36.483 0 0020.143 0h-.156.008c-4.213 0-7.099 2.65-7.099 7.52V12H8.25v5.688h4.646V32h5.699V17.69h4.459l.707-5.688h-5.168V8.08c0-1.643.443-2.768 2.734-2.768z"/></symbol><symbol id="icon-group" viewBox="0 0 34 32"><path d="M5.643 31.315c.012 0 .024.003.035.008s.021.011.03.018l.166.158c-.13.129-.289.232-.468.302a1.78 1.78 0 01-.62.109l-.045-.001h.002a1.742 1.742 0 01-.622-.101 1.365 1.365 0 01-.47-.286l.001.001a1.294 1.294 0 01-.301-.432l-.003-.008a1.442 1.442 0 01-.106-.548v-.018-.028c0-.388.168-.737.436-.977l.001-.001a1.52 1.52 0 01.498-.287 1.96 1.96 0 01.642-.101h.04c.199 0 .39.034.568.096l-.012-.004c.165.062.316.149.447.255l-.139.169a.143.143 0 01-.035.03h-.001a.098.098 0 01-.048.013h-.008a.132.132 0 01-.062-.018h.001l-.074-.046-.104-.058a1.182 1.182 0 00-.321-.1l-.007-.001a1.376 1.376 0 00-.23-.018h-.019.001-.015c-.16 0-.313.028-.455.079l.009-.003a1.07 1.07 0 00-.363.214l.001-.001a.977.977 0 00-.235.339 1.117 1.117 0 00-.085.432v.017-.001.019c0 .157.031.307.088.444l-.003-.008a.953.953 0 00.576.548c.136.049.281.073.427.072.085.001.17-.004.254-.014.211-.022.4-.106.55-.234l-.001.001a.133.133 0 01.078-.029zm4.798-.798v.017c0 .197-.041.384-.116.553l.003-.009a1.24 1.24 0 01-.311.435l-.001.001c-.138.123-.302.22-.481.283l-.01.003a2.03 2.03 0 01-1.278-.004l.014.004a1.471 1.471 0 01-.489-.288l.001.001a1.28 1.28 0 01-.313-.432l-.003-.008a1.454 1.454 0 01.004-1.134l-.004.01c.071-.165.178-.315.316-.442a1.45 1.45 0 01.488-.277 2.003 2.003 0 011.278.004l-.014-.004c.184.065.351.162.49.286a1.296 1.296 0 01.426 1zm-.436 0v-.024a1.19 1.19 0 00-.082-.436l.003.008a.935.935 0 00-.566-.548l-.007-.002a1.455 1.455 0 00-.928.003l.01-.003a.997.997 0 00-.352.214.914.914 0 00-.223.331l-.002.006a1.321 1.321 0 00.003.911l-.003-.009c.101.261.309.46.569.547l.007.002c.296.097.622.097.918 0a.97.97 0 00.35-.211.933.933 0 00.222-.338c.056-.145.082-.298.079-.451zm3.71.473l.043.101c.017-.036.031-.069.048-.101.019-.039.037-.072.056-.103l-.002.004 1.061-1.677c.021-.029.04-.047.061-.053s.047-.009.073-.009h.015-.001.314v2.728h-.372v-2.09a.68.68 0 010-.096v.002l-1.069 1.701a.158.158 0 01-.062.061h-.001a.19.19 0 01-.09.023h-.064a.183.183 0 01-.09-.023h.001a.15.15 0 01-.061-.061v-.001l-1.099-1.711v2.189h-.359v-2.722h.328c.026 0 .051.003.075.01h-.002c.026.011.046.03.058.053l1.084 1.678c.02.028.038.06.053.094l.001.004zm3.995-.135v1.021h-.414v-2.723h.926c.175-.003.349.018.517.059.134.034.259.091.366.17.089.07.159.16.205.262l.002.004c.05.111.073.23.071.349v.017a.755.755 0 01-.299.603l-.002.001a1.062 1.062 0 01-.368.18c-.14.04-.301.064-.468.064h-.035l-.501-.008zm0-.293h.503c.109.002.218-.013.322-.041a.69.69 0 00.234-.119l-.002.001a.522.522 0 00.191-.404v-.007l.001-.029a.453.453 0 00-.043-.195l.001.003a.529.529 0 00-.144-.185l-.001-.001a.888.888 0 00-.562-.146h.003-.503v1.122zm5.584 1.318h-.334a.15.15 0 01-.086-.026h.001a.161.161 0 01-.054-.062v-.001l-.282-.658H21.12l-.293.658a.156.156 0 01-.141.088h-.333l1.246-2.728h.432l1.263 2.728zm-2.057-1.013h1.172l-.494-1.11a1.875 1.875 0 01-.094-.256l-.048.142a.876.876 0 01-.046.116l-.49 1.108zm3.852-1.701a.173.173 0 01.062.048l1.818 2.056v-2.117h.372v2.728h-.212a.204.204 0 01-.082-.017h.001a.221.221 0 01-.066-.05l-1.816-2.054.001.047-.002.049v-.002 2.027h-.372v-2.728h.22c.025 0 .051.005.075.013zm5.313 1.629v1.083h-.415v-1.082l-1.149-1.643h.381a.16.16 0 01.081.023h-.001a.234.234 0 01.056.062l.718 1.06a1.159 1.159 0 01.128.241l.053-.117c.021-.043.044-.084.071-.124l.709-1.067a.293.293 0 01.053-.058.137.137 0 01.082-.027h.384l-1.15 1.65zm-16.893-6.219c.181.02.363.036.549.05 2.803-1.09 5.174-2.872 6.818-5.126s2.485-4.878 2.421-7.546l-3.09-2.683c.629 2.84.335 5.775-.848 8.478s-3.208 5.067-5.849 6.827z"/><path d="M12.407 24.451l.083.015c2.822-1.755 4.973-4.203 6.176-7.031s1.402-5.904.571-8.83l-4.4-3.822c1.779 3.142 2.496 6.659 2.065 10.141-.43 3.482-1.989 6.786-4.495 9.528zm14.921-9.345c-.747 2.931-2.563 5.574-5.177 7.538a16.213 16.213 0 01-2.367 1.49l-.092.043c2.129-.543 4.085-1.504 5.718-2.808s2.901-2.917 3.703-4.714l-1.784-1.549z"/><path d="M26.628 14.674l-2.54-2.207c-.049 2.517-.872 4.976-2.385 7.122s-3.66 3.902-6.217 5.084h.012c.57 0 1.139-.03 1.705-.088 2.39-.848 4.502-2.197 6.146-3.926s2.771-3.785 3.278-5.985zM12.774 3.17L9.743.534c-2.709.91-5.039 2.509-6.686 4.588S.526 9.664.518 12.188c.01 2.789 1.09 5.495 3.07 7.69 1.979 2.194 4.744 3.754 7.858 4.43 2.779-2.942 4.407-6.578 4.646-10.379s-.924-7.57-3.319-10.758zM33.63 14.268c-.011-3.308-1.528-6.478-4.221-8.818s-6.342-3.658-10.15-3.668h-.028c-1.831 0-3.59.305-5.231.867l.114-.034L32.67 18.737c.605-1.313.958-2.849.96-4.468v-.001z"/></symbol><symbol id="icon-instagram-2" viewBox="0 0 32 32"><path d="M31.968 9.408c-.074-1.701-.349-2.869-.742-3.882a7.839 7.839 0 00-1.85-2.837l-.001-.001A7.906 7.906 0 0026.597.861l-.054-.018C25.524.449 24.362.176 22.661.101 20.949.019 20.405 0 16.059 0c-4.344 0-4.888.019-6.595.094-1.699.074-2.869.349-3.88.742a7.847 7.847 0 00-2.839 1.85l-.001.001A7.9 7.9 0 00.919 5.465l-.018.054C.506 6.538.232 7.7.157 9.401c-.082 1.712-.101 2.256-.101 6.602 0 4.344.019 4.888.094 6.595.075 1.701.35 2.869.744 3.882a7.915 7.915 0 001.849 2.837l.001.001c.8.813 1.77 1.443 2.832 1.843 1.019.395 2.182.67 3.882.744 1.707.075 2.251.094 6.595.094 4.346 0 4.89-.019 6.595-.094 1.701-.074 2.869-.349 3.882-.742a8.237 8.237 0 004.664-4.628l.019-.055c.394-1.019.669-2.182.744-3.882.075-1.707.093-2.251.093-6.595s-.006-4.888-.08-6.595zm-2.88 13.066c-.07 1.563-.333 2.406-.55 2.97a5.341 5.341 0 01-3.004 3.024l-.036.012c-.56.219-1.411.482-2.968.55-1.688.075-2.194.094-6.464.094-4.269 0-4.782-.019-6.464-.094-1.563-.069-2.406-.331-2.97-.55a4.953 4.953 0 01-1.836-1.192l-.001-.001a4.978 4.978 0 01-1.184-1.803L3.6 25.45c-.218-.563-.48-1.413-.549-2.97-.075-1.688-.094-2.195-.094-6.464 0-4.27.019-4.784.094-6.464.069-1.563.331-2.406.549-2.97a4.897 4.897 0 011.198-1.837l.002-.002a4.972 4.972 0 011.806-1.182l.034-.011c.56-.219 1.411-.48 2.968-.55 1.688-.074 2.195-.093 6.464-.093 4.275 0 4.782.019 6.464.093 1.563.069 2.406.331 2.97.55a4.91 4.91 0 011.837 1.194c.531.52.938 1.144 1.195 1.84.218.56.48 1.411.549 2.968.075 1.688.094 2.194.094 6.464 0 4.269-.019 4.768-.094 6.458z"/><path d="M16.059 7.782a8.223 8.223 0 00-8.219 8.221 8.223 8.223 0 0016.442.008v-.009a8.223 8.223 0 00-8.221-8.221zm0 13.552a5.333 5.333 0 01.001-10.666h.001a5.334 5.334 0 110 10.668zM26.525 7.458a1.92 1.92 0 01-3.84 0 1.92 1.92 0 013.84 0z"/></symbol><symbol id="icon-linkedin-1" viewBox="0 0 32 32"><path d="M31.992 32H32V20.262c0-5.741-1.237-10.163-7.947-10.163-3.227 0-5.392 1.77-6.277 3.45h-.093v-2.914h-6.365v21.363h6.627V21.42c0-2.786.528-5.48 3.978-5.48 3.398 0 3.448 3.179 3.448 5.658V32h6.621zM.528 10.635h6.635V32H.528V10.635zM3.843 0A3.843 3.843 0 000 3.843c0 2.12 1.722 3.878 3.843 3.878 2.12 0 3.842-1.757 3.842-3.878S5.965.002 3.844 0z"/></symbol><symbol id="icon-Logo" viewBox="0 0 57 32"><path d="M20.267 3.733l3.738 3.538-6.938-.004v17.167H35.2V17.87l3.733 3.534V3.733H20.266zm14.769 13.722L24.439 7.423h10.597v10.032zm-3.29 4.468h-11.81V10.378h.835v10.763h10.975v.781zm-9.021 4.797l-.436.899-.436-.899h-.366l.637 1.198v.698h.331v-.698l.635-1.198h-.364zm.549 1.896l.154-.442h.734l.155.442h.344l-.717-1.896h-.296l-.716 1.896h.342zm.52-1.493l.275.786h-.549l.275-.787zm1.737.74a.425.425 0 00-.071.238v.003c0 .16.056.29.168.389s.263.149.45.149a.784.784 0 00.485-.153l.107.126h.367l-.278-.33a.95.95 0 00.164-.574h-.275a.768.768 0 01-.079.348l-.366-.432.129-.094a.724.724 0 00.195-.195l.002-.003a.41.41 0 00.06-.216v-.003-.007a.39.39 0 00-.132-.293.477.477 0 00-.32-.123h-.02.001c-.153 0-.274.044-.364.13s-.135.203-.135.352c0 .061.014.123.043.189.03.065.082.144.155.237a1.13 1.13 0 00-.282.261zm.856.42a.478.478 0 01-.299.107h-.015a.31.31 0 01-.212-.083.286.286 0 01-.085-.203v-.011.001c0-.101.052-.192.156-.271l.041-.029.414.489zm-.34-.84c-.09-.11-.134-.202-.134-.275 0-.063.019-.116.055-.157a.184.184 0 01.139-.063h.015c.052 0 .1.02.135.054a.168.168 0 01.056.126v.007a.234.234 0 01-.08.177l-.041.032-.145.099zm3.086 1.03a.689.689 0 00.224-.474h-.328c-.018.135-.059.232-.124.29s-.163.087-.292.087c-.141 0-.249-.054-.323-.162s-.11-.264-.11-.469v-.167c.002-.203.041-.355.117-.46a.386.386 0 01.331-.157c.123 0 .217.03.28.091s.104.158.12.294h.328c-.021-.207-.095-.368-.222-.482s-.296-.171-.506-.171a.717.717 0 00-.681.421l-.002.005c-.06.133-.096.288-.096.451v.023-.001.177c.003.174.035.327.098.46s.151.234.266.306a.75.75 0 00.4.107c.216 0 .389-.056.519-.169zm1.936-.266c.064-.141.097-.304.097-.49v-.105-.02c0-.169-.036-.329-.102-.473l.003.007a.728.728 0 00-.274-.318l-.003-.002c-.119-.075-.256-.112-.411-.112s-.291.037-.411.113a.738.738 0 00-.277.324 1.135 1.135 0 00-.098.466v.025-.001.107c.001.181.034.341.099.48a.752.752 0 00.279.322.764.764 0 00.411.112.755.755 0 00.412-.112.737.737 0 00.276-.323zm-.353-1.072c.08.112.119.274.119.484v.099c0 .213-.039.376-.118.487a.386.386 0 01-.336.167h-.014a.393.393 0 01-.324-.17l-.001-.001c-.081-.114-.121-.275-.121-.483v-.109c.002-.204.043-.362.122-.473a.39.39 0 01.321-.168h.014-.001a.39.39 0 01.338.168z"/></symbol><symbol id="icon-Logo1" viewBox="0 0 57 32"><path d="M26.727 3.165h-.073a7.542 7.542 0 00-.336-.012h-.243c-.212 0-.428.005-.642.016l-.024-.001-.025.001h.001c-2.059.12-3.971.635-5.699 1.47l.09-.039-.23.111V16.52l.54-.183a20.64 20.64 0 011.5-.445 17.815 17.815 0 014.305-.573h.012v1.551c-.193.001-.38.006-.568.016h-.045c-1.212.068-2.348.25-3.442.537l.12-.027c-1.503.382-2.82.91-4.044 1.586l.087-.044V3.793a15.49 15.49 0 014.042-1.665l.11-.024a15.544 15.544 0 013.909-.505h.231c.273.007.539.019.788.038.658.046 1.31.15 1.949.311v1.527a11.487 11.487 0 00-1.849-.282l-.039-.002-.039-.003c-.132-.011-.263-.022-.386-.022zm2.688 1.561c.339.026.69.038 1.044.038a16.84 16.84 0 004.231-.554l-.117.026a16.9 16.9 0 004.043-1.587l-.087.044v14.875a15.559 15.559 0 01-4.042 1.665l-.11.024c-1.173.314-2.52.498-3.91.503h-.1c-1.02 0-2.01-.128-2.955-.368l.083.018V4.438c.229.053.466.102.706.142.394.067.81.115 1.214.145zm7.57.116l-.54.181c-.496.167-.997.316-1.5.449-1.344.36-2.888.569-4.48.575h-.004c-.352 0-.676-.01-.989-.03l-.43-.028v12.148l.37.032c.342.03.696.045 1.052.045a14.371 14.371 0 003.631-.48l-.1.023a14.671 14.671 0 002.848-1.031l-.088.039.23-.111V4.842zM19.06 24.113a.794.794 0 00-.572-.243l-.03.001h.001-.012a.888.888 0 00-.34.067l.006-.002a.785.785 0 00-.442.444l-.002.005a.874.874 0 00-.062.335v2.023a.957.957 0 00.079.415.808.808 0 00.203.271.714.714 0 00.277.144c.099.027.201.042.302.042a.854.854 0 00.838-.851v-.226h-.53v.192c0 .06-.011.118-.032.171l.001-.003a.315.315 0 01-.077.114.367.367 0 01-.221.077.265.265 0 01-.247-.108l-.001-.001a.478.478 0 01-.071-.251v-.021.001-1.887a.643.643 0 01.065-.302.27.27 0 01.227-.124l.033.002h-.001.01c.092 0 .174.045.226.114l.001.001a.425.425 0 01.088.26v.012-.001.175h.524v-.206-.009a.958.958 0 00-.067-.352l.002.006a.838.838 0 00-.177-.285zm3.142-.022a.92.92 0 00-.917-.166.838.838 0 00-.483.443l-.002.005a.94.94 0 00-.077.392v1.94a.932.932 0 00.077.397.77.77 0 00.205.271.837.837 0 00.279.171.914.914 0 00.919-.172l-.001.001a.831.831 0 00.199-.271.934.934 0 00.077-.397v-1.941-.017a.952.952 0 00-.08-.381l.002.006a.876.876 0 00-.199-.283zm-.247 2.615l.001.03a.349.349 0 01-.106.251.388.388 0 01-.499 0h.001a.344.344 0 01-.106-.25c0-.011 0-.022.002-.032v.001-1.941l-.001-.03c0-.098.041-.187.106-.25a.388.388 0 01.499 0h-.001a.344.344 0 01.106.25l-.001.032v-.001 1.941zm4.374.867v-3.675h-.508l-.668 1.945h-.009l-.674-1.945h-.503v3.674h.525v-2.235h.01l.514 1.58h.262l.518-1.58h.01v2.235h.525zm2.982-3.416a.727.727 0 00-.297-.201 1.153 1.153 0 00-.361-.057h-.8v3.675h.524v-1.435h.269a.968.968 0 00.473-.1.779.779 0 00.286-.278l.002-.003a.893.893 0 00.12-.32 2.56 2.56 0 00.028-.385v-.035.002a2.107 2.107 0 00-.051-.525.789.789 0 00-.193-.338zm-.27 1.12a.45.45 0 01-.05.194l.001-.003a.3.3 0 01-.133.128l-.002.001a.525.525 0 01-.22.047l-.028-.001h.001-.239v-1.249h.27l.025-.001c.077 0 .149.017.214.048l-.003-.001a.299.299 0 01.122.134l.001.002a.537.537 0 01.046.205v.244c0 .085.005.174 0 .252h-.005zm2.75-1.378h-.429l-.81 3.675h.524l.154-.789h.714l.154.789h.523l-.829-3.675zm-.483 2.384l.258-1.332h.01l.256 1.332h-.523zm3.865-.171h-.01l-.79-2.213h-.503v3.675h.523v-2.21h.011l.8 2.209h.493v-3.674h-.523v2.213zm3.199-2.213l-.421 1.461h-.011l-.421-1.461h-.554l.719 2.122v1.553h.524v-1.553l.719-2.121h-.555zM17.6 28.611h.252v.708h.171v-.708h.251v-.145H17.6v.146zm2.121-.146l-.331.853h.182l.07-.194h.34l.073.194h.187l-.339-.853h-.182zm-.027.516l.116-.316.116.316h-.232zm2.124.023h.197v.11a.326.326 0 01-.203.072H21.8a.218.218 0 01-.169-.081.352.352 0 01-.063-.203l.001-.02v.001c0-.19.082-.285.245-.285l.018-.001a.18.18 0 01.174.136v.001l.169-.033c-.036-.166-.156-.251-.362-.251h-.011a.43.43 0 00-.287.11.415.415 0 00-.123.329v-.001.02c0 .115.041.22.11.301l-.001-.001a.411.411 0 00.297.126l.027-.001h-.001.014a.51.51 0 00.348-.137v-.336h-.37v.144zm2.141-.539h-.173v.853h.597v-.145h-.425v-.708zm1.811 0h-.173v.853h.173v-.853zm1.769.57l-.349-.57h-.167v.853h.16v-.557l.343.557h.172v-.853h-.158v.57zm1.601-.093h.425v-.145h-.425v-.187h.457v-.146h-.63v.853h.647v-.145h-.475v-.231zm3.88-.14h-.336v-.336h-.171v.853h.171v-.373h.336v.373h.172v-.853h-.172v.337zm1.609.14h.427v-.145h-.427v-.187h.459v-.146h-.629v.853h.646v-.145h-.475v-.231zm2.183.001c.149-.023.224-.102.224-.237l.001-.024a.205.205 0 00-.085-.166h-.001a.478.478 0 00-.216-.051l-.035.001h.002-.362v.853h.172v-.357h.048c.034 0 .066.007.094.02l-.001-.001a.181.181 0 01.061.062l.186.271h.205l-.104-.166a.598.598 0 00-.187-.203l-.002-.001zm-.173-.118h-.126v-.214h.135l.036-.001c.049 0 .097.008.141.023l-.003-.001c.023.021.037.05.037.083a.114.114 0 01-.045.09.464.464 0 01-.142.021l-.033-.001h.002zm1.82.117h.425v-.145h-.425v-.187h.459v-.146h-.631v.853h.647v-.145h-.475v-.231z"/></symbol><symbol id="icon-Logo2" viewBox="0 0 57 32"><path d="M12.878 11.255h-.002c-1.279 0-2.316.921-2.316 2.058v.002c0 1.137 1.037 2.058 2.316 2.058h.002c1.279 0 2.316-.922 2.316-2.058v-.001c0-1.137-1.037-2.059-2.316-2.059zm17.093-.658c-.004-1.579-.711-3.092-1.967-4.209s-2.958-1.745-4.734-1.749c-1.777.003-3.481.631-4.737 1.748s-1.964 2.63-1.968 4.209v8.706s13.405-1.327 13.406-8.704v-.002zM5.867 22.16c.003 1.099.496 2.151 1.37 2.928s2.058 1.214 3.294 1.218c1.236-.003 2.42-.441 3.294-1.218s1.366-1.829 1.37-2.927v-6.058s-9.327.924-9.327 6.057zm4.663 1.085c-.242 0-.477-.063-.678-.183a1.136 1.136 0 01-.447-.48l-.003-.007a.951.951 0 01-.068-.634l-.001.007c.047-.211.163-.404.334-.556s.388-.255.625-.297a1.363 1.363 0 01.715.064l-.009-.003c.223.082.414.221.548.4s.206.388.206.603a.963.963 0 01-.092.417 1.095 1.095 0 01-.263.352l-.001.001a1.323 1.323 0 01-.864.319h-.001v-.004zm9.426-.598h-.9v.93h-.469v-2.276h1.482v.38h-1.013v.588h.9v.378zm2.253-.156c0 .224-.039.42-.118.589a.893.893 0 01-.83.529h-.018.001a.943.943 0 01-.505-.136.917.917 0 01-.341-.382l-.002-.006a1.319 1.319 0 01-.123-.561v-.021.001-.112c0-.224.04-.421.12-.591a.895.895 0 01.342-.392c.148-.092.316-.138.506-.138s.357.046.505.138a.888.888 0 01.342.392c.081.17.122.366.122.589v.101zm-.475-.103c0-.238-.043-.42-.128-.544a.417.417 0 00-.348-.186h-.019.001-.018a.419.419 0 00-.346.183l-.001.001c-.085.122-.129.301-.13.538v.111c0 .232.043.412.128.54s.208.192.369.192h.018a.413.413 0 00.343-.183l.001-.001c.084-.124.127-.304.128-.541v-.111zm1.995.592v-.013a.24.24 0 00-.093-.189h-.001a1.185 1.185 0 00-.338-.15c-.15-.047-.278-.1-.399-.163l.014.006c-.259-.14-.388-.328-.388-.564 0-.123.034-.233.103-.328a.691.691 0 01.299-.227 1.13 1.13 0 01.437-.081c.163 0 .307.029.435.089a.677.677 0 01.295.249.646.646 0 01.107.365h-.469c0-.104-.032-.185-.098-.242a.4.4 0 00-.276-.087.426.426 0 00-.267.074.228.228 0 00-.096.185v.006c0 .074.037.136.111.186.075.05.185.097.33.14.267.08.461.18.583.299s.183.267.183.444c0 .197-.075.352-.224.464s-.349.167-.601.167c-.175 0-.334-.032-.478-.096a.77.77 0 01-.328-.261l-.002-.002a.672.672 0 01-.112-.373v-.015.001h.47c0 .251.15.377.45.377a.442.442 0 00.261-.067.223.223 0 00.093-.182v-.009zm2.502-1.298h-.697v1.895h-.469v-1.895h-.686v-.38h1.853v.38zm1.637.909h-.9v.61h1.056v.377h-1.525v-2.276h1.522v.38h-1.053v.542h.9v.367zm1.274.153h-.373v.833H28.3v-2.276h.845c.269 0 .476.06.622.18s.219.289.219.508a.705.705 0 01-.101.389.69.69 0 01-.3.245l-.005.002.492.93v.021h-.503l-.427-.832zm-.373-.38h.379a.387.387 0 00.273-.089.323.323 0 00.097-.231v-.018.001c0-.108-.03-.192-.092-.253s-.154-.092-.28-.092h-.377v.683zm2.84.411v.802h-.469v-2.276h.887c.171 0 .321.031.45.094.13.062.23.151.3.267a.746.746 0 01.105.392.657.657 0 01-.229.528c-.153.128-.363.193-.633.193h-.411zm0-.379h.419c.124 0 .219-.029.283-.087a.317.317 0 00.099-.25v-.017a.372.372 0 00-.099-.254.37.37 0 00-.272-.106h-.43v.715zm2.965.195h-.9v.61h1.056v.377h-1.525v-2.276h1.522v.38h-1.053v.542h.9v.367zm2.176-.909h-.697v1.895h-.469v-1.895h-.687v-.38h1.853v.38zm1.637.909h-.899v.61h1.056v.377h-1.525v-2.276h1.522v.38h-1.053v.542h.9v.367zm1.274.153h-.373v.833h-.469v-2.276h.846c.269 0 .476.06.622.18s.219.289.219.508a.705.705 0 01-.101.389.687.687 0 01-.301.245l-.005.002.492.93v.021h-.503l-.427-.832zm-.374-.38h.378c.117 0 .209-.029.273-.089a.324.324 0 00.097-.232v-.018.001a.338.338 0 00-.092-.253c-.06-.061-.154-.092-.279-.092h-.377v.683zm2.755.616v-.013a.237.237 0 00-.094-.189h-.001a1.185 1.185 0 00-.338-.15c-.15-.047-.278-.1-.399-.163l.014.006c-.259-.14-.388-.328-.388-.564 0-.123.035-.233.103-.328a.691.691 0 01.299-.227 1.13 1.13 0 01.437-.081c.163 0 .307.029.435.089a.677.677 0 01.295.249.646.646 0 01.107.365h-.469c0-.104-.032-.185-.098-.242a.4.4 0 00-.276-.087.426.426 0 00-.267.074.229.229 0 00-.096.186v.005c0 .074.037.136.111.186s.185.097.33.14c.267.08.461.18.583.299s.183.267.183.444c0 .197-.075.352-.224.464s-.349.167-.601.167c-.175 0-.334-.032-.478-.096a.77.77 0 01-.328-.261l-.002-.002a.672.672 0 01-.112-.373v-.015.001h.47c0 .251.15.377.45.377a.442.442 0 00.261-.067.224.224 0 00.094-.182v-.009z"/></symbol><symbol id="icon-Logo3" viewBox="0 0 57 32"><path d="M14.27 23.859a.768.768 0 01.197.56.756.756 0 01-.073.326l.002-.005a.83.83 0 01-.232.296l-.002.001a1.39 1.39 0 01-.885.24h.004-1.549v-3.301h1.517a1.377 1.377 0 01.846.222l-.005-.003a.782.782 0 01.227.277.71.71 0 01.068.341.722.722 0 01-.176.505.842.842 0 01-.462.258.893.893 0 01.523.283zm-1.816-.498h.649a.655.655 0 00.412-.11.386.386 0 00.109-.144l.001-.003a.358.358 0 00.03-.145l-.001-.033v.001l.001-.028a.376.376 0 00-.031-.15l.001.002a.399.399 0 00-.108-.147h-.001a.665.665 0 00-.373-.113l-.054.002h.002-.638v.867zm1.124 1.266a.407.407 0 00.118-.149l.001-.003a.37.37 0 00.034-.158l-.001-.027v.001l.001-.024a.38.38 0 00-.037-.165l.001.002a.41.41 0 00-.121-.151l-.001-.001a.705.705 0 00-.397-.121l-.045.001h.002-.68v.908h.689a.727.727 0 00.435-.115zm3.793.651l-.843-1.291h-.317v1.291h-.726v-3.302h1.374a1.433 1.433 0 01.96.284l-.004-.003a1.016 1.016 0 01.329.735.99.99 0 01-.228.633l.001-.002a1.152 1.152 0 01-.649.335l-.006.001.899 1.319h-.789zm-1.161-1.74h.594c.412 0 .619-.166.619-.5l.001-.027a.464.464 0 00-.035-.176l.001.003a.494.494 0 00-.118-.171.68.68 0 00-.47-.133h.003-.601l.007 1.005zm5.129 1.075h-1.446l-.255.665h-.761l1.328-3.265h.823l1.323 3.265h-.761l-.25-.665zm-.194-.499l-.529-1.394-.529 1.394h1.057zm5.16 1.164h-.72l-1.616-2.245v2.245h-.719v-3.302h.719l1.616 2.259v-2.259h.72v3.302zm4.113-.79a1.501 1.501 0 01-.652.582c-.28.132-.608.209-.955.209l-.062-.001h.003-1.282v-3.302h1.283l.06-.001c.345 0 .673.075.968.209l-.015-.006c.276.128.503.329.652.576a1.78 1.78 0 010 1.733zm-.825-.079c.196-.205.317-.482.318-.788 0-.289-.113-.569-.318-.788a1.317 1.317 0 00-.906-.281h.004-.5v2.138h.5a1.323 1.323 0 00.905-.282l-.003.002zm-7.803-20.8s9.3 3.215 9.103 7.867v7.869s-9.294-3.216-9.1-7.869l-.003-7.867zm17.389 13.894a13.494 13.494 0 015.909-1.994v-2.464c-2.444.863-4.517 2.427-5.909 4.458z"/><path d="M38.124 18.245c1.437-2.651 3.93-4.696 6.964-5.716V5.431s-13.245 4.58-12.965 11.205v11.203s.59-.205 1.519-.589c0-.358 0-.719.043-1.083.274-3.075 1.87-5.925 4.439-7.924z"/><path d="M36.864 22.407c.069-.777.225-1.546.463-2.294-1.599 1.725-2.568 3.867-2.769 6.122-.02.213-.03.426-.036.645a36.805 36.805 0 002.761-1.334l-.214.105a10.624 10.624 0 01-.206-3.244zm.527.04a10.167 10.167 0 00.175 3.003l-.012-.066c3.619-1.983 7.685-5.046 7.528-8.748v-.323c-2.586.265-5.004 1.3-6.885 2.946a10.02 10.02 0 00-.804 3.148l-.003.04z"/></symbol><symbol id="icon-Logo4" viewBox="0 0 57 32"><path d="M28.493 14.618a1.563 1.563 0 01-.322-1.065v.005-1.538c0-.471.107-.829.321-1.075.213-.245.581-.367 1.101-.366.489 0 .837.105 1.042.313.224.266.333.591.308.919v.362h-.875v-.366a1.799 1.799 0 00-.026-.358.34.34 0 00-.125-.212l-.001-.001a.499.499 0 00-.279-.084l-.039.001h.002l-.038-.001a.53.53 0 00-.297.09l.002-.001a.415.415 0 00-.145.232v.003a1.74 1.74 0 00-.035.351v.031-.002 1.866c-.014.18.025.36.112.524.045.056.104.1.172.126l.003.001a.48.48 0 00.228.029H29.6a.47.47 0 00.311-.086l-.002.001a.37.37 0 00.13-.224v-.002c.02-.124.03-.249.027-.374v-.379h.875v.346a1.397 1.397 0 01-.305.969l.002-.003c-.201.228-.544.342-1.047.342s-.884-.122-1.1-.375zm3.644.016c-.221-.24-.332-.588-.332-1.05v-1.618c0-.457.11-.803.332-1.037s.59-.351 1.109-.35c.515 0 .882.117 1.103.35.221.235.333.58.333 1.037v1.617c0 .457-.112.807-.337 1.049s-.59.361-1.1.361-.886-.122-1.109-.359zm1.516-.389a.902.902 0 00.105-.478v-1.981a.872.872 0 00-.105-.474l.002.005a.425.425 0 00-.176-.128l-.003-.001a.473.473 0 00-.233-.027h.002a.49.49 0 00-.235.028l.003-.001a.416.416 0 00-.179.128l-.001.001a.855.855 0 00-.105.469v1.99a.888.888 0 00.105.479.605.605 0 00.639.116l-.004.001a.563.563 0 00.185-.118v-.01zm2.082-3.619h.942l.708 2.984.725-2.984h.916l.093 4.307h-.678l-.073-2.994-.699 2.994h-.544l-.724-3.005-.067 3.005h-.685l.085-4.307zm4.441 0h1.468c.845 0 1.268.407 1.268 1.223 0 .781-.445 1.171-1.335 1.17h-.5v1.914h-.906l.005-4.308zm1.254 1.841a.707.707 0 00.498-.136.699.699 0 00.131-.486 1.325 1.325 0 00-.046-.4l.002.009a.317.317 0 00-.067-.119.386.386 0 00-.112-.085l-.002-.001a.913.913 0 00-.357-.071l-.05.001h.002-.351v1.287h.352zm2.789-1.841h.973l.998 4.307h-.845l-.197-.993h-.868l-.203.993h-.857l.998-4.307zm.831 2.816l-.339-1.808-.339 1.808h.677zm1.946-2.816h.635l1.213 2.457v-2.457h.752v4.307h-.603l-1.221-2.565v2.565h-.777l.002-4.307zm4.361 2.665l-1.009-2.659h.85l.616 1.708.578-1.708h.832l-.997 2.659v1.642h-.869V13.29zm-21.465 3.526v.225h-.739v1.75h-.31v-1.75H28.1v-.225h1.792zm2.318 1.976h-.246a.105.105 0 01-.061-.019.1.1 0 01-.039-.045v-.001l-.214-.469h-1.026l-.213.469a.126.126 0 01-.033.053.108.108 0 01-.062.019h-.245l.906-1.975h.315l.917 1.968zm-1.501-.734h.855l-.363-.804a1.278 1.278 0 01-.064-.176l-.003-.01-.034.105-.033.083-.358.803zm3.062.539a1.018 1.018 0 00.316-.023 1.018 1.018 0 00.252-.085v-.444h-.365a.076.076 0 01-.046-.016c-.006-.004-.01-.01-.014-.016a.034.034 0 01-.004-.018v-.153h.703v.757c-.11.068-.237.123-.372.158l-.01.002c-.075.019-.15.033-.227.041a2.598 2.598 0 01-.265.012h-.011c-.159 0-.312-.027-.455-.077l.01.003a1.123 1.123 0 01-.364-.208l.002.001a.952.952 0 01-.231-.307l-.002-.006a.965.965 0 01-.083-.397v-.013-.011c0-.145.03-.283.084-.407l-.003.007a.907.907 0 01.234-.313c.103-.089.227-.158.363-.205.155-.051.32-.076.485-.074.084 0 .169.005.252.017.074.011.146.027.215.05.064.02.124.047.181.078.055.031.108.065.158.103l-.087.122a.073.073 0 01-.029.026.093.093 0 01-.042.011.111.111 0 01-.057-.016h.001a.892.892 0 01-.094-.05l.005.003a.814.814 0 00-.115-.052l-.006-.002a1.027 1.027 0 00-.16-.043l-.007-.001a1.34 1.34 0 00-.218-.017h-.013.001-.011c-.121 0-.238.02-.346.057l.008-.002a.774.774 0 00-.267.156.672.672 0 00-.166.241l-.002.005a.917.917 0 00.002.665l-.002-.006a.76.76 0 00.445.405c.115.034.237.047.359.039zm2.888-.031h.989v.225h-1.291v-1.975h.309l-.007 1.75zm2.018.226h-.309v-1.975h.309v1.975zm1.153-1.966a.14.14 0 01.047.036l1.324 1.489-.001-.035.001-.037v.002-1.472h.27v1.984h-.166a.14.14 0 01-.058-.012h.001a.162.162 0 01-.048-.037l-1.323-1.488v1.536h-.259v-1.975h.161c.018 0 .035.003.051.009zm3.923-.01v.217h-1.098v.652h.89v.21h-.89v.674h1.098v.218h-1.417v-1.971h1.417zm-32.467-12.2l13.757 3.372v11.818l-13.757-3.371V4.616zm-.882-1.008V17.01l15.52 3.806V7.417L10.404 3.61z"/><path d="M18.722 27.036L3.2 23.227V9.828l15.522 3.807v13.401z"/><path d="M10.661 4.465l13.578 3.33-5.774 4.987L4.886 9.45l5.776-4.986zm-.257-.856L3.2 9.828l15.522 3.808 7.202-6.22-15.52-3.807zm9.191 22.673l6.329-5.466-6.33-1.552v7.019z"/></symbol><symbol id="icon-smartphone" viewBox="0 0 20 32"><path d="M17 0H3C1.346 0 0 1.346 0 3v26c0 1.654 1.346 3 3 3h14c1.654 0 3-1.346 3-3V3c0-1.654-1.346-3-3-3zM3 2h14a1 1 0 011 1v21H2V3a1 1 0 011-1zm14 28H3a1 1 0 01-1-1v-3h16v3a1 1 0 01-1 1z"/></symbol><symbol id="icon-twitter-1" viewBox="0 0 32 32"><path d="M32 6.078c-1.1.493-2.376.857-3.713 1.028l-.068.007a6.556 6.556 0 002.873-3.579l.013-.046a12.88 12.88 0 01-4.076 1.573l-.084.014A6.558 6.558 0 0015.6 9.557v.004c0 .52.043 1.021.152 1.496-5.454-.266-10.28-2.88-13.522-6.861a6.524 6.524 0 00-.902 3.313v.001a6.57 6.57 0 002.914 5.451 6.453 6.453 0 01-2.994-.823l.033.017v.072a6.592 6.592 0 005.213 6.44l.043.008a6.403 6.403 0 01-1.662.215h-.061.003c-.419 0-.843-.024-1.242-.112.85 2.598 3.261 4.509 6.13 4.57a13.093 13.093 0 01-8.122 2.8H1.57h.001-.062c-.531 0-1.055-.034-1.569-.099l.061.006c2.826 1.846 6.287 2.944 10.004 2.944h.063-.003c12.072 0 18.672-10 18.672-18.669 0-.288-.01-.57-.024-.848a13.203 13.203 0 003.258-3.355l.03-.047z"/></symbol></defs></svg>